HIERARCHY
ROOT Hips
{
	OFFSET -0.001795 -0.223333 0.028219
	CHANNELS 6 Xposition Yposition Zposition Zrotation Yrotation Xrotation 
	JOINT LeftUpLeg
	{
		OFFSET 0.069520 -0.091406 -0.006815
		CHANNELS 3 Zrotation Yrotation Xrotation
		JOINT LeftLeg
		{
			OFFSET 0.034277 -0.375199 -0.004496
			CHANNELS 3 Zrotation Yrotation Xrotation
			JOINT LeftFoot
			{
				OFFSET -0.013596 -0.397961 -0.043693
				CHANNELS 3 Zrotation Yrotation Xrotation
				JOINT LeftToe
				{
					OFFSET 0.026358 -0.055791 0.119288
					CHANNELS 3 Zrotation Yrotation Xrotation
					End Site
					{
						OFFSET 0.000000 0.000000 0.000000
					}
				}
			}
		}
	}
	JOINT RightUpLeg
	{
		OFFSET -0.067670 -0.090522 -0.004320
		CHANNELS 3 Zrotation Yrotation Xrotation
		JOINT RightLeg
		{
			OFFSET -0.038290 -0.382569 -0.008850
			CHANNELS 3 Zrotation Yrotation Xrotation
			JOINT RightFoot
			{
				OFFSET 0.015774 -0.398415 -0.042312
				CHANNELS 3 Zrotation Yrotation Xrotation
				JOINT RightToe
				{
					OFFSET -0.025372 -0.048144 0.123348
					CHANNELS 3 Zrotation Yrotation Xrotation
					End Site
					{
						OFFSET 0.000000 0.000000 0.000000
					}
				}
			}
		}
	}
	JOINT Spine
	{
		OFFSET -0.002533 0.108963 -0.026696
		CHANNELS 3 Zrotation Yrotation Xrotation
		JOINT Spine1
		{
			OFFSET 0.005487 0.135180 0.001092
			CHANNELS 3 Zrotation Yrotation Xrotation
			JOINT Spine2
			{
				OFFSET 0.001457 0.052922 0.025425
				CHANNELS 3 Zrotation Yrotation Xrotation
				JOINT Neck
				{
					OFFSET -0.002778 0.213870 -0.042857
					CHANNELS 3 Zrotation Yrotation Xrotation
					JOINT Head
					{
						OFFSET 0.005152 0.064970 0.051349
						CHANNELS 3 Zrotation Yrotation Xrotation
						End Site
						{
							OFFSET 0.000000 0.000000 0.000000
						}
					}
				}
				JOINT LeftShoulder
				{
					OFFSET 0.078845 0.121749 -0.034090
					CHANNELS 3 Zrotation Yrotation Xrotation
					JOINT LeftArm
					{
						OFFSET 0.090977 0.030469 -0.008868
						CHANNELS 3 Zrotation Yrotation Xrotation
						JOINT LeftForeArm
						{
							OFFSET 0.259612 -0.012772 -0.027456
							CHANNELS 3 Zrotation Yrotation Xrotation
							JOINT LeftHand
							{
								OFFSET 0.249234 0.008986 -0.001171
								CHANNELS 3 Zrotation Yrotation Xrotation
								End Site
								{
									OFFSET 0.000000 0.000000 0.000000
								}
							}
						}
					}
				}
				JOINT RightShoulder
				{
					OFFSET -0.081759 0.118833 -0.038615
					CHANNELS 3 Zrotation Yrotation Xrotation
					JOINT RightArm
					{
						OFFSET -0.096012 0.032551 -0.009143
						CHANNELS 3 Zrotation Yrotation Xrotation
						JOINT RightForeArm
						{
							OFFSET -0.253742 -0.013329 -0.021401
							CHANNELS 3 Zrotation Yrotation Xrotation
							JOINT RightHand
							{
								OFFSET -0.255298 0.007772 -0.005559
								CHANNELS 3 Zrotation Yrotation Xrotation
								End Site
								{
									OFFSET 0.000000 0.000000 0.000000
								}
							}
						}
					}
				}
			}
		}
	}
}
MOTION
Frames: 5
Frame Time: 0.050000
0.004224 0.943618 -0.025258 0.713450 -3.688983 10.845393 4.768120 -0.847549 -15.562682 -1.247909 -0.028319 10.366657 2.595568 7.537077 7.873071 0.000000 0.000000 0.000000 -4.540657 1.455786 -18.529378 -1.608138 0.783095 10.652032 -1.921894 -8.434601 9.433828 0.000000 0.000000 0.000000 4.653351 -0.216001 0.110356 0.835870 -0.198712 -7.024708 -10.600642 7.241529 4.875984 10.610079 -3.469375 -21.372222 0.000000 0.000000 0.000000 13.052773 -11.540639 4.364495 -6.087878 -41.039063 -1.519585 105.414467 -36.694536 -47.085145 0.000000 0.000000 0.000000 -14.546911 1.844621 0.593535 13.349564 23.519062 0.426493 -115.014331 53.813942 -65.720196 0.000000 0.000000 0.000000 
0.003465 0.943605 -0.026074 0.899724 -2.243047 10.841968 4.784997 -0.891660 -15.741587 -1.242604 -0.054375 10.147334 1.921524 6.432207 7.772772 0.000000 0.000000 0.000000 -4.419858 1.398598 -18.180476 -1.902654 0.808658 10.437585 -2.548061 -9.545328 9.546868 0.000000 0.000000 0.000000 4.342135 -0.172241 -0.298126 0.788723 -0.162155 -6.866350 -10.767722 7.576852 4.243115 10.571667 -3.411165 -20.780279 0.000000 0.000000 0.000000 12.758729 -12.770445 4.741445 -8.226923 -41.858211 -1.050547 107.093646 -35.882696 -48.049692 0.000000 0.000000 0.000000 -12.479849 3.255671 0.829292 14.405278 23.793526 0.607581 -115.781329 55.181948 -67.424051 0.000000 0.000000 0.000000 
0.003140 0.943350 -0.025785 1.133732 -0.961108 10.796268 4.515686 -0.949194 -15.647113 -0.937488 -0.129351 9.722254 1.341048 5.451671 7.594326 0.000000 0.000000 0.000000 -4.393384 1.337274 -17.805680 -2.184689 0.842418 10.346418 -3.128079 -10.549150 9.556079 0.000000 0.000000 0.000000 4.250595 -0.129215 -0.829307 0.733239 -0.136431 -6.368224 -11.141282 7.980771 3.753879 11.053669 -3.642126 -20.292727 0.000000 0.000000 0.000000 12.336283 -12.889925 4.869376 -9.679377 -42.552243 -0.758495 109.320322 -37.107085 -51.921100 0.000000 0.000000 0.000000 -11.205672 3.694150 0.877935 14.926083 24.878660 0.836211 -117.435207 56.373647 -69.874888 0.000000 0.000000 0.000000 
0.002667 0.943743 -0.025045 1.423784 -0.073695 10.817349 4.554378 -0.944493 -15.159607 -1.329999 -0.045594 8.631163 0.846872 4.683053 7.740718 0.000000 0.000000 0.000000 -4.584959 1.240094 -16.964993 -2.233389 0.773714 9.215851 -3.487634 -11.181418 9.698756 0.000000 0.000000 0.000000 4.080534 -0.078956 -1.434498 0.533352 -0.047645 -6.254275 -11.422524 8.696686 3.303092 11.558827 -3.900688 -19.785360 0.000000 0.000000 0.000000 13.034223 -13.674286 5.190441 -10.074616 -41.922372 -0.781830 111.470842 -38.917943 -56.799581 0.000000 0.000000 0.000000 -10.405404 4.115443 0.932034 14.794308 24.712228 0.842890 -118.854876 58.247302 -72.976656 0.000000 0.000000 0.000000 
0.001917 0.943554 -0.024166 1.161423 0.869614 10.776372 4.854349 -0.916337 -14.728107 -1.091258 -0.081161 7.808425 0.442506 3.961805 7.530812 0.000000 0.000000 0.000000 -4.310620 1.221221 -16.605250 -1.970029 0.708542 9.065769 -3.888530 -11.882060 9.791389 0.000000 0.000000 0.000000 4.163105 -0.026749 -2.181793 0.694711 -0.105572 -6.063374 -11.569089 9.285267 3.166330 12.053262 -4.045095 -19.911594 0.000000 0.000000 0.000000 13.890654 -13.163492 5.264131 -9.391806 -40.833375 -1.090948 113.960375 -41.287281 -62.843773 0.000000 0.000000 0.000000 -10.163023 4.433196 0.947286 13.942179 24.043367 0.681298 -119.238248 59.235533 -73.968385 0.000000 0.000000 0.000000 
